<svg xmlns="http://www.w3.org/2000/svg" viewBox="0 0 520 220" role="img" aria-labelledby="title desc">
  <title id="title">Spore logo</title>
  <desc id="desc">An interconnected network of dark nodes linked by coral lines, with three highlighted circular rings.</desc>
  <rect width="520" height="220" rx="18" fill="#f6f1e8"/>
  <g fill="none" stroke="#f56d69" stroke-linecap="round" stroke-linejoin="round" stroke-width="6.5">
    <path d="M260 20 233 55 260 92 298 62 260 20"/>
    <path d="M195 55 233 55 214 95 183 111 142 72"/>
    <path d="M298 62 350 72 334 111 298 62 260 92"/>
    <path d="M214 95 260 92 298 62 334 111 281 112 214 95"/>
    <path d="M214 95 235 111 207 150 183 111 214 95"/>
    <path d="M235 111 260 92 281 112 264 155 235 111"/>
    <path d="M281 112 334 111 332 147 290 175 264 155 281 112"/>
    <path d="M207 150 228 172 258 201 290 175 264 155 207 150"/>
    <path d="M142 72 125 111 180 111 183 111 195 55"/>
    <path d="M350 72 392 111 334 111"/>
    <path d="M334 111 378 147 332 147"/>
    <path d="M233 55 222 30 260 20 292 30 298 62"/>
    <path d="M222 30 195 55 214 95 260 20"/>
    <path d="M292 30 350 72 298 62"/>
    <path d="M180 111 172 146 207 150"/>
    <path d="M334 111 350 150 332 147"/>
    <path d="M183 111 228 172"/>
    <path d="M260 92 207 150"/>
    <path d="M214 95 334 111"/>
    <path d="M235 111 298 62"/>
    <path d="M233 55 281 112"/>
    <path d="M214 95 290 175"/>
    <path d="M183 111 264 155"/>
    <path d="M207 150 281 112"/>
  </g>
  <g fill="#3e444c" stroke="#f6f1e8" stroke-width="2.5">
    <circle cx="260" cy="20" r="10"/>
    <circle cx="222" cy="30" r="10"/>
    <circle cx="292" cy="30" r="10"/>
    <circle cx="195" cy="55" r="10"/>
    <circle cx="233" cy="55" r="13"/>
    <circle cx="298" cy="62" r="13"/>
    <circle cx="350" cy="72" r="10"/>
    <circle cx="142" cy="72" r="10"/>
    <circle cx="214" cy="95" r="13"/>
    <circle cx="260" cy="92" r="10"/>
    <circle cx="183" cy="111" r="10"/>
    <circle cx="235" cy="111" r="10"/>
    <circle cx="281" cy="112" r="10"/>
    <circle cx="334" cy="111" r="10"/>
    <circle cx="392" cy="111" r="10"/>
    <circle cx="125" cy="111" r="10"/>
    <circle cx="172" cy="146" r="10"/>
    <circle cx="207" cy="150" r="13"/>
    <circle cx="264" cy="155" r="10"/>
    <circle cx="332" cy="147" r="13"/>
    <circle cx="378" cy="147" r="10"/>
    <circle cx="228" cy="172" r="10"/>
    <circle cx="290" cy="175" r="10"/>
    <circle cx="258" cy="201" r="10"/>
  </g>
  <g fill="none" stroke="#3e444c" stroke-width="6">
    <circle cx="298" cy="62" r="21"/>
    <circle cx="260" cy="92" r="17"/>
    <circle cx="207" cy="150" r="21"/>
  </g>
</svg>
